<?xml version="1.0" encoding="iso-8859-1"?>
<!-- Generator: Adobe Illustrator 18.1.1, SVG Export Plug-In . SVG Version: 6.00 Build 0)  -->
<svg version="1.1" id="Capa_1" xmlns="http://www.w3.org/2000/svg" xmlns:xlink="http://www.w3.org/1999/xlink" x="0px" y="0px"
	 viewBox="0 0 292.377 292.377" style="enable-background:new 0 0 292.377 292.377;" xml:space="preserve">
<g>
	<path style="fill:#010002;" d="M146.188,0C65.576,0,0,65.582,0,146.188s65.576,146.188,146.188,146.188
		s146.188-65.582,146.188-146.188S226.801,0,146.188,0z M194.962,152.155h-42.806v42.8c0,3.3-2.667,5.967-5.967,5.967
		c-3.3,0-5.967-2.667-5.967-5.967v-42.8H97.415c-3.294,0-5.967-2.673-5.967-5.967s2.673-5.967,5.967-5.967h42.806V97.415
		c0-3.294,2.667-5.967,5.967-5.967c3.3,0,5.967,2.673,5.967,5.967v42.806h42.806c3.3,0,5.967,2.673,5.967,5.967
		S198.261,152.155,194.962,152.155z"/>
</g>
<g>
</g>
<g>
</g>
<g>
</g>
<g>
</g>
<g>
</g>
<g>
</g>
<g>
</g>
<g>
</g>
<g>
</g>
<g>
</g>
<g>
</g>
<g>
</g>
<g>
</g>
<g>
</g>
<g>
</g>
</svg>
