<?xml version="1.0" encoding="iso-8859-1"?>
<!-- Generator: Adobe Illustrator 18.0.0, SVG Export Plug-In . SVG Version: 6.00 Build 0)  -->
<!DOCTYPE svg PUBLIC "-//W3C//DTD SVG 1.1//EN" "http://www.w3.org/Graphics/SVG/1.1/DTD/svg11.dtd">
<svg version="1.1" id="Capa_1" xmlns="http://www.w3.org/2000/svg" xmlns:xlink="http://www.w3.org/1999/xlink" x="0px" y="0px"
	 viewBox="0 0 297 297" style="enable-background:new 0 0 297 297;" xml:space="preserve">
<g>
	<path d="M240.335,92.838h-0.01c-2.845,0-5.148,2.307-5.148,5.153c0,2.846,2.313,5.153,5.158,5.153c2.846,0,5.153-2.307,5.153-5.153
		C245.488,95.145,243.182,92.838,240.335,92.838z"/>
	<path d="M285.326,82.116l-43.932-29.288c-1.693-1.129-3.682-1.731-5.717-1.731h-8.778c-6.2-4.771-15.042-8.252-27.328-8.252
		c-0.483,0-0.975,0.005-1.468,0.016c-3.049,0.067-5.725,2.043-6.687,4.936c-0.201,0.606-4.864,15.001,1.755,27.712
		c0.983,1.888,2.149,3.63,3.492,5.227c-2.721,2.761-6.453,4.372-10.483,4.372H53.513c-14.309,0-27.207,6.143-36.207,15.925
		c-6.353-17.49,6.354-36.005,14.125-45.145c1.937,1.415,4.108,2.457,6.369,2.99c1.187,0.279,2.376,0.417,3.556,0.417
		c4.227,0,8.316-1.768,11.587-5.095l0.621-0.634c3.186-3.263,3.761-3.851,12.084-2.224c2.611,0.512,5.279-0.454,6.962-2.505
		c1.683-2.052,2.104-4.862,1.095-7.317c-3.867-9.416-16.679-25.439-37.473-18.676h0.001c-8.2,2.663-13.261,10.533-12.765,18.765
		c-3.729,3.913-10.31,11.494-15.531,21.14c-10.541,19.474-10.578,37.915-0.142,53.394C5.549,121.77,4.3,127.901,4.3,134.321v116.977
		c0,13.497,10.981,24.478,24.478,24.478h5.668c13.497,0,24.478-10.981,24.478-24.478v-22.092
		c19.736,6.047,57.058,13.312,98.425,0.104v21.989c0,13.497,10.981,24.478,24.478,24.478h7.834c12.014,0,22.169-8.602,24.145-20.455
		l11.74-70.437c1.619-9.72,6.712-18.37,14.388-24.49l41.064-17.369C290.719,138.912,297,129.435,297,118.88v-14.951
		C297,95.144,292.636,86.989,285.326,82.116z M40.689,36.566c0.001,0,0.001,0,0.001,0c1.826-0.593,3.539-0.892,5.164-0.892
		c2.153,0,4.151,0.524,6.047,1.586c-3.509,1.26-5.993,3.492-8.663,6.228l-0.583,0.595c-0.889,0.903-1.3,0.807-1.545,0.751
		c-0.586-0.138-1.244-0.573-1.81-1.139c-0.121-1.333-0.585-2.641-1.403-3.784C38.116,38.402,39.146,37.067,40.689,36.566z
		 M53.513,105.721h59.063c0.522,0.971,1.028,2.079,1.415,3.286c1.639,5.104,0.385,9.518-3.944,13.893
		c-11.265,11.381-12.615,19.958-13.602,26.222c-0.607,3.857-0.834,5.3-3.26,7.647c-2.339,2.263-9.797,5.255-19.012,6.347
		c-9.212,1.088-14.735-0.29-16.398-1.286c-1.76-15.195-13.86-32.257-30.494-38.89C31.69,112.817,41.786,105.721,53.513,105.721z
		 M272.967,124.041l-42.291,17.888c-0.771,0.326-1.5,0.745-2.17,1.247c-12.459,9.346-20.731,22.955-23.293,38.318v0.001
		l-11.74,70.437c-0.312,1.872-1.915,3.231-3.813,3.231h-7.834c-2.131,0-3.865-1.734-3.865-3.865v-36.845
		c0-3.47-1.746-6.707-4.646-8.612c-1.707-1.122-3.679-1.694-5.661-1.694c-1.386,0-2.777,0.28-4.087,0.845
		c-56.763,24.528-110.056,0.37-110.567,0.133c-3.193-1.499-6.932-1.262-9.908,0.628c-2.978,1.89-4.782,5.172-4.782,8.7v36.845
		c0,2.131-1.734,3.865-3.865,3.865h-5.668c-2.131,0-3.865-1.734-3.865-3.865V142.521c7.863,5.051,13.75,14.138,14.47,21.784
		c0.654,6.963,5.408,12.574,13.041,15.396c4.282,1.583,9.608,2.312,15.284,2.311c14.321,0,30.86-4.64,38.375-11.909
		c6.888-6.664,7.886-13.003,8.688-18.095c0.755-4.792,1.406-8.929,8.46-16.057c9.731-9.833,11.267-20.845,9.063-30.23h53.885
		c11.462,0,21.925-5.429,28.512-14.462c0.193,0.016,0.386,0.042,0.578,0.042c3.109,0,5.978-2.026,6.911-5.157
		c1.137-3.819-1.037-7.836-4.855-8.974c-5.559-1.656-9.262-4.355-11.32-8.254c-1.998-3.784-2.156-8.129-1.85-11.421
		c18.181,1.846,20.716,14.579,20.967,16.22c0.528,3.914,4.112,6.668,8.044,6.191c2.53-0.316,4.584-1.91,5.61-4.05l35.115,23.41
		c1.562,1.042,2.495,2.785,2.495,4.663v0.789c-0.86-0.643-1.916-1.037-3.072-1.037h-0.01c-2.845,0-5.148,2.307-5.148,5.153
		s2.313,5.153,5.158,5.153c1.156,0,2.212-0.394,3.072-1.037v5.931C276.387,121.136,275.045,123.162,272.967,124.041z"/>
</g>
<g>
</g>
<g>
</g>
<g>
</g>
<g>
</g>
<g>
</g>
<g>
</g>
<g>
</g>
<g>
</g>
<g>
</g>
<g>
</g>
<g>
</g>
<g>
</g>
<g>
</g>
<g>
</g>
<g>
</g>
</svg>
