<?xml version="1.0" encoding="iso-8859-1"?>
<!-- Generator: Adobe Illustrator 19.0.0, SVG Export Plug-In . SVG Version: 6.00 Build 0)  -->
<svg version="1.1" id="Capa_1" xmlns="http://www.w3.org/2000/svg" xmlns:xlink="http://www.w3.org/1999/xlink" x="0px" y="0px"
	 viewBox="0 0 64 64" style="enable-background:new 0 0 64 64;" xml:space="preserve">
<g>
	<path d="M57.878,31.521c-0.098-0.179-0.248-0.324-0.431-0.416l-10-5c-0.281-0.141-0.613-0.141-0.895,0l-10,5
		c-0.183,0.091-0.333,0.236-0.431,0.416l-6,11C30.042,42.668,30,42.833,30,43v20c0,0.552,0.448,1,1,1h13h6h13c0.552,0,1-0.448,1-1
		V43c0-0.167-0.042-0.332-0.122-0.479L57.878,31.521z M42,31.414l4,4v4.172l-4-4V31.414z M48,35.414l4-4v4.172l-4,4V35.414z
		 M48,32.586v-3.968l2.645,1.323L48,32.586z M46,32.586l-2.645-2.645L46,28.618V32.586z M42,38.414L45.586,42H42V38.414z M52,38.414
		V42h-3.586L52,38.414z M61.315,42h-6.901l4.466-4.466L61.315,42z M57.881,35.704L54,39.586v-7.968l2.272,1.136L57.881,35.704z
		 M37.727,32.754L40,31.618v7.968l-3.882-3.882L37.727,32.754z M39.586,42h-6.901l2.436-4.466L39.586,42z M45,62v-6
		c0-1.103,0.897-2,2-2s2,0.897,2,2v6H45z M51,62v-6c0-2.206-1.794-4-4-4s-4,1.794-4,4v6H32V44h30v18H51z"/>
	<path d="M40,46h-5c-0.552,0-1,0.448-1,1v5c0,0.552,0.448,1,1,1h5c0.552,0,1-0.448,1-1v-5C41,46.448,40.552,46,40,46z M39,51h-3v-3
		h3V51z"/>
	<path d="M59,46h-5c-0.552,0-1,0.448-1,1v5c0,0.552,0.448,1,1,1h5c0.552,0,1-0.448,1-1v-5C60,46.448,59.552,46,59,46z M58,51h-3v-3
		h3V51z"/>
	<path d="M48.414,21L58,11.414l4.293,4.293l1.414-1.414l-5-5c-0.391-0.391-1.023-0.391-1.414,0L53,13.586l-6.293-6.293
		c-0.391-0.391-1.023-0.391-1.414,0L39,13.586l-7.293-7.293c-0.391-0.391-1.023-0.391-1.414,0L27.5,9.086l-8.793-8.793
		c-0.391-0.391-1.023-0.391-1.414,0L5,12.586l-2.293-2.293C2.519,10.106,2.265,10,2,10H0v2h1.586l7.207,7.207
		c0.391,0.391,1.023,0.391,1.414,0L18,11.414l4.293,4.293c0.391,0.391,1.023,0.391,1.414,0L31,8.414L43.586,21H0v2h64v-2H48.414z
		 M23,13.586l-4.293-4.293c-0.391-0.391-1.023-0.391-1.414,0L9.5,17.086L6.414,14L18,2.414l8.086,8.086L23,13.586z M46,9.414
		L51.586,15L46,20.586L40.414,15L46,9.414z"/>
	<path d="M39,8c2.206,0,4-1.794,4-4s-1.794-4-4-4s-4,1.794-4,4S36.794,8,39,8z M39,2c1.103,0,2,0.897,2,2s-0.897,2-2,2s-2-0.897-2-2
		S37.897,2,39,2z"/>
	<rect x="51" y="5" width="2" height="2"/>
	<rect x="57" y="5" width="2" height="2"/>
	<rect x="60" y="1" width="2" height="2"/>
	<rect x="54" y="1" width="2" height="2"/>
	<rect x="48" y="1" width="2" height="2"/>
	<path d="M26,52H15v-2h-2v2H2v-2H0v2v2v6v2v2h2v-2h11v2h2v-2h11v2h2v-2v-2v-6v-2v-2h-2V52z M15,54.789L18.592,57L15,59.211V54.789z
		 M13,59.211L9.408,57L13,54.789V59.211z M17.533,54h5.935L20.5,55.826L17.533,54z M7.5,55.826L4.533,54h5.935L7.5,55.826z
		 M5.592,57L2,59.211V54.79L5.592,57z M7.5,58.174L10.467,60H4.533L7.5,58.174z M20.5,58.174L23.467,60h-5.935L20.5,58.174z
		 M22.408,57L26,54.789v4.421L22.408,57z"/>
	<path d="M6,44h1v1h2v-1h1v1h2v-2c0-0.552-0.448-1-1-1H6V44z"/>
	<path d="M15,46v2h2v-1h1v1h2v-1h1v-2h-5C15.448,45,15,45.448,15,46z"/>
	<path d="M10,32v2h2v-1h1v1h2v-1h1v-2h-5C10.448,31,10,31.448,10,32z"/>
	<path d="M25,30v-1h1v-2h-5c-0.552,0-1,0.448-1,1v2h2v-1h1v1H25z"/>
	<path d="M2,28h1v1h2v-1h1v-2H1c-0.552,0-1,0.448-1,1v2h2V28z"/>
	<path d="M20,40h1v1h2v-1h1v1h2v-2c0-0.552-0.448-1-1-1h-5V40z"/>
	<path d="M37,29v-2c0-0.552-0.448-1-1-1h-5v2h1v1h2v-1h1v1H37z"/>
	<path d="M8,37H3v2h1v1h2v-1h1v1h2v-2C9,37.448,8.552,37,8,37z"/>
	<rect x="54" y="59" width="2" height="2"/>
	<rect x="58" y="59" width="2" height="2"/>
</g>
<g>
</g>
<g>
</g>
<g>
</g>
<g>
</g>
<g>
</g>
<g>
</g>
<g>
</g>
<g>
</g>
<g>
</g>
<g>
</g>
<g>
</g>
<g>
</g>
<g>
</g>
<g>
</g>
<g>
</g>
</svg>
