<?xml version="1.0" encoding="iso-8859-1"?>
<!-- Generator: Adobe Illustrator 19.0.0, SVG Export Plug-In . SVG Version: 6.00 Build 0)  -->
<svg version="1.1" id="Layer_1" xmlns="http://www.w3.org/2000/svg" xmlns:xlink="http://www.w3.org/1999/xlink" x="0px" y="0px"
	 viewBox="0 0 512 512" style="enable-background:new 0 0 512 512;" xml:space="preserve">
<g>
	<g>
		<path d="M455.009,428.583l-51.2-59.733c-3.058-3.592-8.45-3.992-12.025-0.925c-3.583,3.067-4,8.984-0.925,12.559l39.121,46.183
			H317.193c-4.717,0-8.533,3.817-8.533,8.533s3.817,8.533,8.533,8.533H429.98l-39.121,45.117c-3.075,3.575-2.658,8.692,0.925,11.758
			c1.608,1.383,3.583,1.925,5.55,1.925c2.4,0,4.792-1.075,6.475-3.05l51.2-59.767C457.751,436.525,457.751,431.775,455.009,428.583z
			"/>
	</g>
</g>
<g>
	<g>
		<path d="M422.893,0H81.643C67.501,0,54.934,10.4,54.934,24.5v460.867c0,14.1,12.542,26.633,26.65,26.633h257.158
			c4.717,0,8.533-3.817,8.533-8.533s-3.817-8.533-8.533-8.533H81.584c-4.7,0-9.583-4.883-9.583-9.567V24.5
			c0-4.683,4.917-7.433,9.642-7.433h341.25c4.65,0,7.508,2.808,7.508,7.4V323.2c0,4.717,3.817,8.533,8.533,8.533
			c4.717,0,8.533-3.817,8.533-8.533V24.467C447.468,10.392,437.034,0,422.893,0z"/>
	</g>
</g>
<g>
	<g>
		<path d="M294.934,59.733h-85.333c-4.717,0-8.533,3.817-8.533,8.533c0,4.717,3.817,8.533,8.533,8.533h85.333
			c4.717,0,8.533-3.817,8.533-8.533C303.468,63.55,299.651,59.733,294.934,59.733z"/>
	</g>
</g>
<g>
	<g>
		<path d="M371.734,119.467H132.801c-4.717,0-8.533,3.817-8.533,8.533c0,4.717,3.817,8.533,8.533,8.533h238.933
			c4.717,0,8.533-3.817,8.533-8.533C380.268,123.283,376.451,119.467,371.734,119.467z"/>
	</g>
</g>
<g>
	<g>
		<path d="M371.734,179.2H132.801c-4.717,0-8.533,3.817-8.533,8.533c0,4.717,3.817,8.533,8.533,8.533h238.933
			c4.717,0,8.533-3.817,8.533-8.533C380.268,183.017,376.451,179.2,371.734,179.2z"/>
	</g>
</g>
<g>
	<g>
		<path d="M371.734,238.933H132.801c-4.717,0-8.533,3.817-8.533,8.533c0,4.717,3.817,8.533,8.533,8.533h238.933
			c4.717,0,8.533-3.817,8.533-8.533C380.268,242.75,376.451,238.933,371.734,238.933z"/>
	</g>
</g>
<g>
	<g>
		<path d="M371.734,298.667H132.801c-4.717,0-9.6,2.75-9.6,7.467v128c0,4.717,4.883,9.6,9.6,9.6h145.067
			c4.717,0,8.533-3.817,8.533-8.533s-3.817-8.533-8.533-8.533h-137.6V315.733h221.867V348.8c0,4.717,3.817,8.533,8.533,8.533
			c4.717,0,8.533-3.817,8.533-8.533v-42.667C379.201,301.417,376.451,298.667,371.734,298.667z"/>
	</g>
</g>
<g>
</g>
<g>
</g>
<g>
</g>
<g>
</g>
<g>
</g>
<g>
</g>
<g>
</g>
<g>
</g>
<g>
</g>
<g>
</g>
<g>
</g>
<g>
</g>
<g>
</g>
<g>
</g>
<g>
</g>
</svg>
